<svg xmlns="http://www.w3.org/2000/svg" xmlns:xlink="http://www.w3.org/1999/xlink" preserveAspectRatio="xMidYMid" width="690" height="10" viewBox="0 0 690 10">
  <defs>
    <style>
      .cls-1 {
        fill: #753bbd;
        fill-rule: evenodd;
      }
    </style>
  </defs>
  <path d="M1185.000,10.000 C1182.239,10.000 1180.000,7.761 1180.000,5.000 C1180.000,2.239 1182.239,0.000 1185.000,0.000 C1187.761,0.000 1190.000,2.239 1190.000,5.000 C1190.000,7.761 1187.761,10.000 1185.000,10.000 ZM1160.000,5.000 C1160.000,2.239 1162.239,0.000 1165.000,0.000 C1167.761,0.000 1170.000,2.239 1170.000,5.000 C1170.000,7.761 1167.761,10.000 1165.000,10.000 C1162.239,10.000 1160.000,7.761 1160.000,5.000 ZM1105.000,10.000 C1102.239,10.000 1100.000,7.761 1100.000,5.000 C1100.000,2.239 1102.239,0.000 1105.000,0.000 L1145.000,0.000 C1147.761,0.000 1150.000,2.239 1150.000,5.000 C1150.000,7.761 1147.761,10.000 1145.000,10.000 L1105.000,10.000 ZM1080.000,5.000 C1080.000,2.239 1082.239,0.000 1085.000,0.000 C1087.761,0.000 1090.000,2.239 1090.000,5.000 C1090.000,7.761 1087.761,10.000 1085.000,10.000 C1082.239,10.000 1080.000,7.761 1080.000,5.000 ZM1060.000,5.000 C1060.000,2.239 1062.239,0.000 1065.000,0.000 C1067.761,0.000 1070.000,2.239 1070.000,5.000 C1070.000,7.761 1067.761,10.000 1065.000,10.000 C1062.239,10.000 1060.000,7.761 1060.000,5.000 ZM1040.000,5.000 C1040.000,2.239 1042.239,0.000 1045.000,0.000 C1047.761,0.000 1050.000,2.239 1050.000,5.000 C1050.000,7.761 1047.761,10.000 1045.000,10.000 C1042.239,10.000 1040.000,7.761 1040.000,5.000 ZM1005.000,10.000 C1002.239,10.000 1000.000,7.761 1000.000,5.000 C1000.000,2.239 1002.239,0.000 1005.000,0.000 L1025.000,0.000 C1027.761,0.000 1030.000,2.239 1030.000,5.000 C1030.000,7.761 1027.761,10.000 1025.000,10.000 L1005.000,10.000 ZM980.000,5.000 C980.000,2.239 982.239,0.000 985.000,0.000 C987.761,0.000 990.000,2.239 990.000,5.000 C990.000,7.761 987.761,10.000 985.000,10.000 C982.239,10.000 980.000,7.761 980.000,5.000 ZM905.000,10.000 C902.239,10.000 900.000,7.761 900.000,5.000 C900.000,2.239 902.239,0.000 905.000,0.000 L965.000,0.000 C967.761,0.000 970.000,2.239 970.000,5.000 C970.000,7.761 967.761,10.000 965.000,10.000 L905.000,10.000 ZM880.000,5.000 C880.000,2.239 882.239,0.000 885.000,0.000 C887.761,0.000 890.000,2.239 890.000,5.000 C890.000,7.761 887.761,10.000 885.000,10.000 C882.239,10.000 880.000,7.761 880.000,5.000 ZM860.000,5.000 C860.000,2.239 862.239,0.000 865.000,0.000 C867.761,0.000 870.000,2.239 870.000,5.000 C870.000,7.761 867.761,10.000 865.000,10.000 C862.239,10.000 860.000,7.761 860.000,5.000 ZM805.000,10.000 C802.239,10.000 800.000,7.761 800.000,5.000 C800.000,2.239 802.239,0.000 805.000,0.000 L845.000,0.000 C847.761,0.000 850.000,2.239 850.000,5.000 C850.000,7.761 847.761,10.000 845.000,10.000 L805.000,10.000 ZM780.000,5.000 C780.000,2.239 782.239,0.000 785.000,0.000 C787.761,0.000 790.000,2.239 790.000,5.000 C790.000,7.761 787.761,10.000 785.000,10.000 C782.239,10.000 780.000,7.761 780.000,5.000 ZM760.000,5.000 C760.000,2.239 762.239,0.000 765.000,0.000 C767.761,0.000 770.000,2.239 770.000,5.000 C770.000,7.761 767.761,10.000 765.000,10.000 C762.239,10.000 760.000,7.761 760.000,5.000 ZM740.000,5.000 C740.000,2.239 742.239,0.000 745.000,0.000 C747.761,0.000 750.000,2.239 750.000,5.000 C750.000,7.761 747.761,10.000 745.000,10.000 C742.239,10.000 740.000,7.761 740.000,5.000 ZM705.000,10.000 C702.239,10.000 700.000,7.761 700.000,5.000 C700.000,2.239 702.239,0.000 705.000,0.000 L725.000,0.000 C727.761,0.000 730.000,2.239 730.000,5.000 C730.000,7.761 727.761,10.000 725.000,10.000 L705.000,10.000 ZM680.000,5.000 C680.000,2.239 682.239,0.000 685.000,0.000 C687.761,0.000 690.000,2.239 690.000,5.000 C690.000,7.761 687.761,10.000 685.000,10.000 C682.239,10.000 680.000,7.761 680.000,5.000 ZM605.000,10.000 C602.239,10.000 600.000,7.761 600.000,5.000 C600.000,2.239 602.239,0.000 605.000,0.000 L665.000,0.000 C667.761,0.000 670.000,2.239 670.000,5.000 C670.000,7.761 667.761,10.000 665.000,10.000 L605.000,10.000 ZM580.000,5.000 C580.000,2.239 582.239,0.000 585.000,0.000 C587.761,0.000 590.000,2.239 590.000,5.000 C590.000,7.761 587.761,10.000 585.000,10.000 C582.239,10.000 580.000,7.761 580.000,5.000 ZM560.000,5.000 C560.000,2.239 562.239,0.000 565.000,0.000 C567.761,0.000 570.000,2.239 570.000,5.000 C570.000,7.761 567.761,10.000 565.000,10.000 C562.239,10.000 560.000,7.761 560.000,5.000 ZM505.000,10.000 C502.239,10.000 500.000,7.761 500.000,5.000 C500.000,2.239 502.239,0.000 505.000,0.000 L545.000,0.000 C547.761,0.000 550.000,2.239 550.000,5.000 C550.000,7.761 547.761,10.000 545.000,10.000 L505.000,10.000 ZM480.000,5.000 C480.000,2.239 482.239,0.000 485.000,0.000 C487.761,0.000 490.000,2.239 490.000,5.000 C490.000,7.761 487.761,10.000 485.000,10.000 C482.239,10.000 480.000,7.761 480.000,5.000 ZM460.000,5.000 C460.000,2.239 462.239,0.000 465.000,0.000 C467.761,0.000 470.000,2.239 470.000,5.000 C470.000,7.761 467.761,10.000 465.000,10.000 C462.239,10.000 460.000,7.761 460.000,5.000 ZM440.000,5.000 C440.000,2.239 442.239,0.000 445.000,0.000 C447.761,0.000 450.000,2.239 450.000,5.000 C450.000,7.761 447.761,10.000 445.000,10.000 C442.239,10.000 440.000,7.761 440.000,5.000 ZM405.000,10.000 C402.239,10.000 400.000,7.761 400.000,5.000 C400.000,2.239 402.239,0.000 405.000,0.000 L425.000,0.000 C427.761,0.000 430.000,2.239 430.000,5.000 C430.000,7.761 427.761,10.000 425.000,10.000 L405.000,10.000 ZM380.000,5.000 C380.000,2.239 382.239,0.000 385.000,0.000 C387.761,0.000 390.000,2.239 390.000,5.000 C390.000,7.761 387.761,10.000 385.000,10.000 C382.239,10.000 380.000,7.761 380.000,5.000 ZM305.000,10.000 C302.239,10.000 300.000,7.761 300.000,5.000 C300.000,2.239 302.239,0.000 305.000,0.000 L365.000,0.000 C367.761,0.000 370.000,2.239 370.000,5.000 C370.000,7.761 367.761,10.000 365.000,10.000 L305.000,10.000 ZM280.000,5.000 C280.000,2.239 282.239,0.000 285.000,0.000 C287.761,0.000 290.000,2.239 290.000,5.000 C290.000,7.761 287.761,10.000 285.000,10.000 C282.239,10.000 280.000,7.761 280.000,5.000 ZM260.000,5.000 C260.000,2.239 262.239,0.000 265.000,0.000 C267.761,0.000 270.000,2.239 270.000,5.000 C270.000,7.761 267.761,10.000 265.000,10.000 C262.239,10.000 260.000,7.761 260.000,5.000 ZM205.000,10.000 C202.239,10.000 200.000,7.761 200.000,5.000 C200.000,2.239 202.239,0.000 205.000,0.000 L245.000,0.000 C247.761,0.000 250.000,2.239 250.000,5.000 C250.000,7.761 247.761,10.000 245.000,10.000 L205.000,10.000 ZM180.000,5.000 C180.000,2.239 182.239,0.000 185.000,0.000 C187.761,0.000 190.000,2.239 190.000,5.000 C190.000,7.761 187.761,10.000 185.000,10.000 C182.239,10.000 180.000,7.761 180.000,5.000 ZM160.000,5.000 C160.000,2.239 162.239,0.000 165.000,0.000 C167.761,0.000 170.000,2.239 170.000,5.000 C170.000,7.761 167.761,10.000 165.000,10.000 C162.239,10.000 160.000,7.761 160.000,5.000 ZM140.000,5.000 C140.000,2.239 142.239,0.000 145.000,0.000 C147.761,0.000 150.000,2.239 150.000,5.000 C150.000,7.761 147.761,10.000 145.000,10.000 C142.239,10.000 140.000,7.761 140.000,5.000 ZM105.000,10.000 C102.239,10.000 100.000,7.761 100.000,5.000 C100.000,2.239 102.239,0.000 105.000,0.000 L125.000,0.000 C127.761,0.000 130.000,2.239 130.000,5.000 C130.000,7.761 127.761,10.000 125.000,10.000 L105.000,10.000 ZM80.000,5.000 C80.000,2.239 82.239,0.000 85.000,0.000 C87.761,0.000 90.000,2.239 90.000,5.000 C90.000,7.761 87.761,10.000 85.000,10.000 C82.239,10.000 80.000,7.761 80.000,5.000 ZM5.000,10.000 C2.239,10.000 0.000,7.761 0.000,5.000 C0.000,2.239 2.239,0.000 5.000,0.000 L65.000,0.000 C67.761,0.000 70.000,2.239 70.000,5.000 C70.000,7.761 67.761,10.000 65.000,10.000 L5.000,10.000 Z" class="cls-1"/>
</svg>
